<?xml version="1.0" standalone="no"?><!DOCTYPE svg PUBLIC "-//W3C//DTD SVG 1.1//EN" "http://www.w3.org/Graphics/SVG/1.1/DTD/svg11.dtd"><svg t="1517384182170" class="icon" style="" viewBox="0 0 1024 1024" version="1.1" xmlns="http://www.w3.org/2000/svg" p-id="7239" xmlns:xlink="http://www.w3.org/1999/xlink" width="200" height="200"><defs><style type="text/css"></style></defs><path d="M517.045618 594.635045c-134.120006-10.161431-208.554255 13.601786-248.054469 36.356023l0 245.394966c0 11.189853-9.055608 20.244067-20.244896 20.244067-11.169845 0-20.244896-9.055237-20.244896-20.244067L228.501357 164.141384c-23.52575-8.362458-40.488769-30.602995-40.488769-57.014528 0-33.54807 27.183196-60.731176 60.733665-60.731176 33.550468 0 60.733665 27.182083 60.733665 60.731176 0 26.411533-16.963019 48.65207-40.488769 57.014528L268.991149 252.449639c57.530585-7.15598 166.679873-1.977028 260.885208 110.944811 135.067626 161.890111 407.340652 100.012831 407.340652 100.012831S755.649467 612.724029 517.045618 594.635045zM248.746253 86.882789c-11.169845 0-20.244896 9.055237-20.244896 20.244067 0 11.189853 9.075051 20.244067 20.244896 20.244067 11.190312 0 20.244896-9.054213 20.244896-20.244067C268.991149 95.937003 259.936564 86.882789 248.746253 86.882789zM498.777831 389.332193c-67.928825-81.449034-143.925727-98.549503-195.703049-98.549503-13.008801 0-24.515328 1.087774-33.926037 2.451842l0 292.326858c40.133667-18.424628 99.700715-33.825386 186.728286-33.825386 20.421935 0 42.050398 0.850367 64.232492 2.530636 12.297574 0.929162 24.791632 1.403976 37.207915 1.403976 79.197935 0 150.865051-19.09694 208.691384-42.267663C676.649039 505.951237 571.313769 476.277404 498.777831 389.332193zM188.013611 861.598236c-36.277691 6.999414-60.733665 20.046568-60.733665 35.031864 0 18.917862 38.96705 34.753525 91.574307 39.20286 3.103815 0.77055 6.306895 1.284249 9.648126 1.284249l40.489792 0c3.340208 0 6.544311-0.5137 9.66757-1.284249 52.587814-4.449335 91.554864-20.283975 91.554864-39.20286 0-14.986319-24.45495-28.033473-60.733665-35.031864l0-39.99183c59.329631 11.999288 101.222433 41.039695 101.222433 75.023694 0 44.717458-72.516495 80.974219-161.956098 80.974219-89.43858 0-161.956098-36.256762-161.956098-80.974219 0-33.983999 41.892802-63.025429 101.222433-75.023694L188.013611 861.598236z" p-id="7240"></path></svg>