<?xml version="1.0" standalone="no"?><!DOCTYPE svg PUBLIC "-//W3C//DTD SVG 1.1//EN" "http://www.w3.org/Graphics/SVG/1.1/DTD/svg11.dtd"><svg t="1517384209987" class="icon" style="" viewBox="0 0 1024 1024" version="1.1" xmlns="http://www.w3.org/2000/svg" p-id="7563" xmlns:xlink="http://www.w3.org/1999/xlink" width="200" height="200"><defs><style type="text/css"></style></defs><path d="M743.207 207.83c-37.337-1.143-69.02 31.843-69.688 68.624-0.665 37.765 31.207 70.529 68.86 70.768 38.289 0.222 71.625-31.559 70.513-69.116-1.237-42.195-31.048-69.086-69.685-70.276z m-0.064 96.768c-13.748 0-25.494-11.793-25.875-26.032-0.476-15.032 11.208-27.145 26.003-27.099 14.445 0.033 25.525 10.985 25.81 25.542 0.286 15.366-11.176 27.558-25.938 27.59z" p-id="7564"></path><path d="M947.665 282.137C910.518 245.119 802.227 133.92 786.163 114.41 772.223 97.63 757.3 78.06 735.84 70.853c-28.86-9.635-48.005 19.35-66.354 35.971-25.018 22.65-506.64 489.159-593.376 573.007-6.669 6.444-26.322 28.684-1.59 53.433 66.833 66.798 130.867 136.057 196.619 203.983 22.858 23.7 34.256 23.59 58.036 0.665 117.66-113.516 576.55-557.721 595.63-575.291 24.797-22.909 55.02-48.466 22.859-80.484z m-80.513 56.273c-45.368 44.193-90.961 88.166-136.517 132.169-132.71 128.058-265.481 256.08-398.222 384.075-23.809 22.985-39.145 22.89-61.782-0.493-37.81-38.988-75.59-78.006-113.12-117.26-16.92-17.75-18.159-31.592-6.285-48.37 18.542 17.776 37.21 35.763 56.037 53.526 13.812 13.08 33.178 11.193 36.892-4.652 1.777-7.698-1.651-19.207-6.984-25.477-16.224-19.427-34.51-37.13-52.702-56.243 4.095-4.474 53.494-52.366 55.718-54.701 18.858 17.955 37.463 35.112 55.432 52.83 8.446 8.335 17.303 12.84 28.764 7.824 13.558-5.905 16.065-22.635 4.477-35.477-17.46-19.225-35.845-37.669-55.051-57.733l41.463-42.165s94.387 88.152 98.484 92.04c12.54 11.906 25.43 13.492 34.159 3.016 9.588-11.48 6.92-22.813-3.047-33.163-26.002-26.857-51.876-53.812-77.657-80.7-4.316-4.446-8.54-8.97-13.524-14.256 4.032-4.445 20.572-21.4 22.383-23.414 18.635 16.906 35.114 35.27 53.084 52.193 13.586 12.857 25.524 15.365 35.367 6.19 10.129-9.413 9.015-23.493-4.763-36.796-17.08-16.526-35.241-33.081-53.845-49.783 3.746-4.061 56.988-56.542 57.781-57.32 20.573 18.905 39.402 35.955 57.91 53.337 10.288 9.602 20.892 13.7 32.765 3.477 10.668-9.145 10.73-21.494-1.873-33.908-18.13-17.827-37.588-34.29-57.336-52.13 8.507-8.034 18.222-17.479 19.59-18.797 19.238 17.572 38.129 33.862 56.287 50.829 13.938 13.034 25.305 14.463 35.431 3.89 8.826-9.19 7.812-22.78-4.412-34.35-18.097-17.034-37.59-32.59-56.45-49.212 137.028-137.04 156.425-192.744 201.477-147.676 41.97 41.97 82.8 85.134 123.756 128.169 15.395 16.144 13.87 33.48-3.687 50.511z" p-id="7565"></path></svg>