<?xml version="1.0" standalone="no"?><!DOCTYPE svg PUBLIC "-//W3C//DTD SVG 1.1//EN" "http://www.w3.org/Graphics/SVG/1.1/DTD/svg11.dtd"><svg t="1517384229503" class="icon" style="" viewBox="0 0 1024 1024" version="1.1" xmlns="http://www.w3.org/2000/svg" p-id="7780" xmlns:xlink="http://www.w3.org/1999/xlink" width="200" height="200"><defs><style type="text/css"></style></defs><path d="M721.032 488.204H302.38c-25.585 0-46.517 21.208-46.517 47.126v377.013c0 25.92 20.932 47.126 46.517 47.126h418.65c25.584 0 46.517-21.207 46.517-47.126V535.33c0-25.918-20.933-47.126-46.516-47.126z m0 424.139H302.38V535.33h418.65v377.013z" p-id="7781"></path><path d="M887.06 228.964h-84.333v-70.647c0-51.838-50.718-94.297-99.971-94.297H299.803c-49.249 0-79.118 42.458-79.118 94.297v70.647h-94.758c-37.088 0-61.946 31.663-61.946 70.704v353.449c0 25.92 14.935 47.112 39.56 47.112h94.757V488.174c0-38.88 25.01-70.704 61.946-70.704h492.497c36.938 0 72.371 31.824 72.371 70.704V700.23h79.118c27.493 0 55.2-23.66 55.2-52.599V299.668c0-38.88-35.433-70.704-72.37-70.704zM831.375 346.78h-78.352c-12.31 0-22.385-10.603-22.385-23.564 0-12.959 10.075-23.563 22.385-23.563h78.352c12.313 0 22.386 10.603 22.386 23.563 0 12.96-10.073 23.564-22.386 23.564z m-95.807-117.816H287.844v-47.039c0-25.919 9.723-47.214 34.345-47.214h358.18c24.627 0 55.199 21.295 55.199 47.214v47.039z" p-id="7782"></path><path d="M640.746 749.644h-258.08c-14.266 0-25.808-11.542-25.808-25.807 0-14.265 11.542-25.808 25.807-25.808h258.081c14.265 0 25.808 11.543 25.808 25.808s-11.543 25.807-25.808 25.807zM640.746 639.667h-258.08c-14.266 0-25.808-11.543-25.808-25.808s11.542-25.808 25.807-25.808h258.081c14.265 0 25.808 11.543 25.808 25.808s-11.543 25.808-25.808 25.808zM640.746 857.132h-258.08c-14.266 0-25.808-11.543-25.808-25.808s11.542-25.808 25.807-25.808h258.081c14.265 0 25.808 11.543 25.808 25.808 0 14.264-11.543 25.808-25.808 25.808z" p-id="7783"></path></svg>