<?xml version="1.0" standalone="no"?><!DOCTYPE svg PUBLIC "-//W3C//DTD SVG 1.1//EN" "http://www.w3.org/Graphics/SVG/1.1/DTD/svg11.dtd"><svg t="1517384102297" class="icon" style="" viewBox="0 0 1024 1024" version="1.1" xmlns="http://www.w3.org/2000/svg" p-id="7013" xmlns:xlink="http://www.w3.org/1999/xlink" width="200" height="200"><defs><style type="text/css"></style></defs><path d="M512.922 63.583c248.335 0 449.712 201.384 449.712 449.71 0 248.333-201.377 449.702-449.712 449.702-248.333 0-449.71-201.369-449.71-449.702 0-248.326 201.377-449.71 449.71-449.71z m148.683 213.634l-35.351 61.247a206.8 206.8 0 0 1 34.37 27.739c37.359 37.351 60.475 88.96 60.475 145.955 0 57.004-23.117 108.607-60.475 145.965-37.344 37.352-88.945 60.469-145.949 60.469-56.987 0-108.606-23.117-145.965-60.469-37.359-37.359-60.461-88.962-60.461-145.965 0-56.995 23.117-108.605 60.461-145.955a209.04 209.04 0 0 1 27.762-23.286l-35.43-61.359a278.69 278.69 0 0 0-42.279 34.69c-50.156 50.148-81.18 119.417-81.18 195.91 0 76.504 31.041 145.773 81.18 195.929 50.139 50.139 119.408 81.166 195.912 81.166 76.502 0 145.771-31.026 195.91-81.166 50.156-50.156 81.182-119.425 81.182-195.929 0-76.494-31.026-145.763-81.182-195.91a277.704 277.704 0 0 0-48.98-39.031zM473.618 128.865v337.849h75.458V128.865h-75.458z" p-id="7014"></path></svg>