<?xml version="1.0" standalone="no"?><!DOCTYPE svg PUBLIC "-//W3C//DTD SVG 1.1//EN" "http://www.w3.org/Graphics/SVG/1.1/DTD/svg11.dtd"><svg t="1518263438827" class="icon" style="" viewBox="0 0 1412 1024" version="1.1" xmlns="http://www.w3.org/2000/svg" p-id="1755" xmlns:xlink="http://www.w3.org/1999/xlink" width="275.78125" height="200"><defs><style type="text/css"></style></defs><path d="M1139.903986 627.775992C1147.519986 593.087993 1151.999986 554.559993 1151.999986 511.999994c0-278.399997-191.999998-383.999995-191.999998-383.999995l0 78.335999c0 0 127.999998 83.263999 127.999998 305.663996 0 28.48-2.112 54.591999-5.76 78.527999L1139.903986 627.775992z" p-id="1756"></path><path d="M959.999988 511.487994 959.999988 511.487994C959.743988 271.487997 767.999991 191.999998 767.999991 191.999998l0 71.103999c0 0 108.671999 46.079999 125.759998 205.567998L959.999988 511.487994z" p-id="1757"></path><path d="M1311.871984 738.943991C1331.071984 679.103992 1343.999984 604.415993 1343.999984 511.999994c0-355.903996-191.999998-447.999995-191.999998-447.999995l0 83.071999c0 0 127.999998 70.655999 127.999998 364.927996 0 79.103999-9.28 142.015998-22.784 191.615998L1311.871984 738.943991z" p-id="1758"></path><path d="M125.567998 115.327999 1376.895983 939.263989 1411.839983 885.631989 160.511998 61.695999Z" p-id="1759"></path><path d="M428.479995 167.935998 703.999991 346.047996 703.999991 0Z" p-id="1760"></path><path d="M1151.999986 959.999988c0 0 29.76-14.272 65.791999-53.247999l-57.215999-36.992C1155.199986 873.791989 1151.999986 875.519989 1151.999986 875.519989L1151.999986 959.999988z" p-id="1761"></path><path d="M0 375.487995l0 273.087997c0 0 0 68.287999 66.687999 68.287999l133.311998 0L703.999991 1023.999988 703.999991 574.655993 246.399997 278.911997 199.999998 307.199996 66.687999 307.199996C0 307.199996 0 375.487995 0 375.487995z" p-id="1762"></path><path d="M767.999991 760.895991 767.999991 831.99999c0 0 82.687999-34.304 139.519998-125.759998l-50.495999-32.64C819.39199 739.071991 767.999991 760.895991 767.999991 760.895991z" p-id="1763"></path><path d="M959.999988 814.97599 959.999988 895.999989c0 0 50.175999-27.584 99.199999-91.775999l-52.479999-33.92C981.439988 801.47199 959.999988 814.97599 959.999988 814.97599z" p-id="1764"></path></svg>