<?xml version="1.0" standalone="no"?><!DOCTYPE svg PUBLIC "-//W3C//DTD SVG 1.1//EN" "http://www.w3.org/Graphics/SVG/1.1/DTD/svg11.dtd"><svg t="1517384318330" class="icon" style="" viewBox="0 0 1024 1024" version="1.1" xmlns="http://www.w3.org/2000/svg" p-id="8221" xmlns:xlink="http://www.w3.org/1999/xlink" width="200" height="200"><defs><style type="text/css"></style></defs><path d="M842.1 425.6c0.4-5.7 0.6-11.5 0.6-17.4 0-144-119.3-261.2-265.8-261.2H446.1c-146.6 0-265.8 117.2-265.8 261.2 0 5.8 0.2 11.6 0.6 17.4C112.3 460.7 65.5 531 65.5 612.1c0 95.2 64.6 175.6 153.2 201.5v46c0 28.7 22.8 51.9 50.9 51.9h50.9c28.1 0 50.9-23.2 50.9-51.9v-37.3h280.4v37.3c0 28.7 22.8 51.9 50.9 51.9h50.9c28.1 0 50.9-23.2 50.9-51.9v-46.2c88.4-26 152.8-106.3 152.8-201.4 0.2-81-46.6-151.3-115.2-186.4zM256.8 682.1c-42.3 0-76.6-34.2-76.6-76.4s34.3-76.4 76.6-76.4 76.6 34.2 76.6 76.4-34.3 76.4-76.6 76.4zM280 401.8c-7.9 0-15.7 0.4-23.4 1.2 2.8-99.5 86.4-179.6 188.7-179.6h132.2c102.4 0 185.9 80.1 188.7 179.6-7.7-0.8-15.5-1.2-23.3-1.2H280z m486.5 280.3c-42.2 0-76.4-34.2-76.4-76.4s34.2-76.4 76.4-76.4 76.4 34.2 76.4 76.4-34.2 76.4-76.4 76.4z" p-id="8222"></path></svg>