<?xml version="1.0" standalone="no"?><!DOCTYPE svg PUBLIC "-//W3C//DTD SVG 1.1//EN" "http://www.w3.org/Graphics/SVG/1.1/DTD/svg11.dtd"><svg t="1517384200501" class="icon" style="" viewBox="0 0 1024 1024" version="1.1" xmlns="http://www.w3.org/2000/svg" p-id="7455" xmlns:xlink="http://www.w3.org/1999/xlink" width="200" height="200"><defs><style type="text/css"></style></defs><path d="M923.379 305.415l-141.484-0.515 158.758-157.807c17.345-17.546 17.345-45.963 0-63.456-17.45-17.494-45.684-17.494-63.046 0L717.314 243.093l1.081-144.31c0.419-18.113-13.873-33.87-31.898-33.443H663.69c-18.008 0.47-32.928 11.237-33.294 29.35l-0.942 250.38c0 0.321 1.17 0.558 1.17 0.888l-1.746 16.421c-0.14 9.03 1.99 17.162 7.819 22.947 5.74 5.88 13.837 9.405 22.806 9.179l16.28-0.332c0.367 0 0.612-0.14 0.943-0.192l250.701 1.413c18.026-0.418 32.876-15.381 33.346-33.53v-23.006c-2.723-21.35-19.422-33.862-37.394-33.443z m35.7 381.697l-0.051-22.999c-0.419-18.148-15.234-33.102-33.154-33.538l-249.393 1.36c-0.366 0-0.611-0.14-0.943-0.14l-16.21-0.365c-8.952-0.28-16.996 3.298-22.72 9.126-5.793 5.828-7.906 13.96-7.73 23.035l1.744 16.42c0 0.331-1.17 0.576-1.17 0.89l0.943 248.45c0.366 18.112 15.182 28.88 33.154 29.315l24.186 0.035c17.921 0.436 32.126-15.373 31.689-33.487l-1.03-141.396 159.65 158.48c17.256 17.483 45.386 17.483 62.696 0 17.31-17.503 17.31-45.911 0-63.449L781.285 719.622l140.54-0.524c17.887 0.47 34.533-10.627 37.255-31.986z m-573.468-46.521c-5.74-5.828-13.837-9.406-22.808-9.109l-16.332 0.367c-0.279 0-0.558 0.14-0.873 0.14L98.23 630.575c-17.974 0.437-32.893 15.39-33.312 33.538l-0.052 23c2.722 21.358 19.439 32.422 37.412 32.09l139.494 0.505-160.05 159.177c-17.415 17.555-17.415 45.963 0 63.448 17.38 17.503 45.561 17.503 62.96 0l160.31-159.403-1.082 140.54c-0.436 18.113 13.873 33.87 31.846 33.451h22.86c18.008-0.471 32.91-11.203 33.294-29.351l0.943-246.67c0-0.315-1.17-0.559-1.17-0.89l1.78-16.42c0.087-9.022-2.007-17.153-7.852-23z m7.206-295.52l-0.941-250.38c-0.35-18.113-15.2-28.923-33.12-29.394H334.57c-17.903-0.384-32.107 15.373-31.688 33.443l1.081 143.315L144.368 83.637c-17.363-17.494-45.44-17.494-62.75 0-17.31 17.493-17.31 45.91 0 63.456L239.661 304.9l-139.232 0.515c-17.868-0.419-34.48 12.092-37.202 33.444l0.034 23.007c0.436 18.147 15.252 33.11 33.173 33.53l249.374-1.414c0.35 0.052 0.577 0.192 0.908 0.192l16.229 0.375c8.933 0.235 17.03-3.289 22.72-9.17 5.792-5.837 7.887-13.968 7.712-23.05l-1.78-16.412c0-0.332 1.22-0.525 1.22-0.847z m0 0" p-id="7456"></path></svg>