<?xml version="1.0" standalone="no"?><!DOCTYPE svg PUBLIC "-//W3C//DTD SVG 1.1//EN" "http://www.w3.org/Graphics/SVG/1.1/DTD/svg11.dtd"><svg t="1517384299814" class="icon" style="" viewBox="0 0 1024 1024" version="1.1" xmlns="http://www.w3.org/2000/svg" p-id="7998" xmlns:xlink="http://www.w3.org/1999/xlink" width="200" height="200"><defs><style type="text/css"></style></defs><path d="M702.171 752.559c27.632 0 48.762-21.13 48.762-47.137 0-11.378-4.876-22.755-11.377-30.882l39.01-39.01c19.504-19.505 19.504-50.387 0-68.267L572.14 360.838l92.647-92.648 94.273 94.273c19.505 19.505 50.388 19.505 68.267 0l32.508-32.507c19.505-19.505 19.505-50.388 0-68.267L624.152 26.006c-19.504-19.504-50.387-19.504-68.266 0l-32.508 32.508c-19.505 19.505-19.505 50.388 0 68.267l94.273 94.273-92.648 92.648-206.425-206.426c-19.505-19.505-50.388-19.505-68.267 0L97.524 260.063c-19.505 19.505-19.505 50.388 0 68.267l206.425 206.426-92.647 92.647-94.273-94.273c-19.505-19.505-50.388-19.505-68.267 0l-32.508 32.508c-19.505 19.505-19.505 50.387 0 68.267l235.683 235.682c19.504 19.505 50.387 19.505 68.266 0l32.508-32.508c19.505-19.504 19.505-50.387 0-68.266l-94.273-94.273 92.648-92.648L557.51 788.317c19.505 19.505 50.387 19.505 68.267 0l45.51-45.51c8.128 6.5 19.506 9.752 30.883 9.752z" p-id="7999"></path><path d="M897.219 658.286h-71.517c0 43.885-17.88 86.146-50.388 117.028-32.508 30.883-76.393 48.762-123.53 48.762v68.267c136.533 0 245.435-105.65 245.435-234.057z" p-id="8000"></path><path d="M952.483 658.286c0 157.663-134.908 286.07-299.073 286.07v68.266c204.8 0 370.59-159.289 370.59-352.71h-71.517z" p-id="8001"></path></svg>