<?xml version="1.0" standalone="no"?><!DOCTYPE svg PUBLIC "-//W3C//DTD SVG 1.1//EN" "http://www.w3.org/Graphics/SVG/1.1/DTD/svg11.dtd"><svg t="1517384306596" class="icon" style="" viewBox="0 0 1024 1024" version="1.1" xmlns="http://www.w3.org/2000/svg" p-id="8108" xmlns:xlink="http://www.w3.org/1999/xlink" width="200" height="200"><defs><style type="text/css"></style></defs><path d="M889.483 216.433c-65.023-7.504-105.306 44.598-129.954 104.216 5.003-81.966-8.592-168.55-70.287-187.649-45.523-14.092-70.348 27.576-83.695 83.681-7.79-65.989-32.85-122.443-95.327-124.713-152.95-5.557-108.855 185.639-108.855 185.639-27.832-66.748-75.09-196.069-187.692-125.15-109.279 68.832 42.01 292.016 42.01 292.016s-133.82-52.145-177.623 18.774c-94.025 152.25 324.707 465.14 324.707 465.14 66.747 16.687 9.027-77.175 9.027-77.175C-18.604 456.288 154.618 478.45 199.04 498.705c56.644 25.813 276.178 208.307 123.065-47.973-191.897-321.22 14.601-264.902 50.091-111.935 19.035 82.098 66.227 114.33 79.36 116.905 20.305 3.975 33.732-14.796 23.53-66.845-27.962-142.553-29.56-193.819-0.13-215.933 28.42-21.347 87.508-17.485 83.564 65.753-15.318 322.603 66.552 237.003 70.202 203.712 7.072-64.531-17.892-245.135 50.06-241.957 91.712 4.27-20.142 333.05 52.178 316.362s38.133-279.078 152.95-228.057c50.061 22.244 13.038 150.099-38.88 283.658-41.587 106.915-93.765 222.777-133.787 287.666-48.626 78.805-17.273 108.495 46.182 8.719 262.782-413.176 226.019-641.51 132.059-652.347z" p-id="8109"></path></svg>